<svg width="40" height="40" viewBox="4 4 32 32" fill="none" xmlns="http://www.w3.org/2000/svg">
<path d="M20.0007 3.33331C10.8173 3.33331 3.33398 10.8166 3.33398 20C3.33398 29.1833 10.8173 36.6666 20.0007 36.6666C29.184 36.6666 36.6673 29.1833 36.6673 20C36.6673 10.8166 29.184 3.33331 20.0007 3.33331ZM25.6007 23.8333C26.084 24.3166 26.084 25.1166 25.6007 25.6C25.3507 25.85 25.034 25.9666 24.7173 25.9666C24.4007 25.9666 24.084 25.85 23.834 25.6L20.0007 21.7666L16.1673 25.6C15.9173 25.85 15.6007 25.9666 15.284 25.9666C14.9673 25.9666 14.6507 25.85 14.4007 25.6C13.9173 25.1166 13.9173 24.3166 14.4007 23.8333L18.234 20L14.4007 16.1666C13.9173 15.6833 13.9173 14.8833 14.4007 14.4C14.884 13.9166 15.684 13.9166 16.1673 14.4L20.0007 18.2333L23.834 14.4C24.3173 13.9166 25.1173 13.9166 25.6007 14.4C26.084 14.8833 26.084 15.6833 25.6007 16.1666L21.7673 20L25.6007 23.8333Z" fill="#071E22"/>
</svg>
